<svg id="Layer_1" data-name="Layer 1" xmlns="http://www.w3.org/2000/svg" viewBox="0 0 460.24 267.23"><defs><style>.cls-1{fill:#55ba59;}</style></defs><title>Empty-table</title><path class="cls-1" d="M106.37,91.46c-3.77.46-5-1.94-5-5s2.33-4.38,5-4.79a40.65,40.65,0,0,1,6.05-.15H346.61c2,0,4.06-.13,6.06.06,3.29.31,6.1,1.54,5.84,5.48s-2.59,5.23-6.29,4.44l.35-2.32c1.41-.34,3.39,0,3.75-1.85s-1.18-2.79-2.72-3a39.42,39.42,0,0,0-6-.28H112.77c-1.51,0-3,0-4.54.06-4,.27-2.62,2.67-1.85,4.81Z"/><path class="cls-1" d="M352.57,89.23l-.35,2.32q-96.08.11-192.16.2c-17.9,0-35.79-.19-53.69-.29q0-1.26,0-2.53,120.84,0,241.67-.07C349.56,88.86,351.06,89.1,352.57,89.23Z"/><path class="cls-1" d="M373.65,86.73c-.07,3.46-1.91,5.32-5.11,5.46a4.94,4.94,0,0,1-5.54-5c-.17-3.49,1.88-5.84,5.52-5.75C371.7,81.55,373.52,83.52,373.65,86.73Z"/><path class="cls-1" d="M416,72c.35-.78.81-.86,1.38-.21l-.65.36Z"/><path class="cls-1" d="M49,71.75c.57-.65,1-.59,1.39.21l-.73.15Z"/><path class="cls-1" d="M352.57,89.23c-1.51-.13-3-.38-4.52-.38q-120.83,0-241.67.07c-.77-2.14-2.16-4.54,1.85-4.81,1.51-.1,3-.06,4.54-.06H347.56a39.42,39.42,0,0,1,6,.28c1.55.24,3.06,1.27,2.72,3S354,88.9,352.57,89.23Z"/><path class="cls-1" d="M192.27,137.71H49.92L10.63,31.44,0,35.37,40,143.68,34.63,267.23H46L51.14,149H181.43l5.18,118.19h11.34l-5.67-129.5ZM18.73,37,53.87,132H191.93a14.17,14.17,0,0,0-13-8.5H59.79L28.67,39.35a14.13,14.13,0,0,0-12.47-9.22L18.73,37Zm441.51-1.61-10.63-3.93L410.32,137.71H268v0l-5.67,129.5h11.34L278.81,149H409.1l5.18,118.19h11.34L420.2,143.68ZM405.74,59.5H54.5V70.84H405.74Zm-124.46,64a14.17,14.17,0,0,0-13,8.5H406.37L441.51,37h0l2.53-6.85a14.13,14.13,0,0,0-12.48,9.22l-31.12,84.19Z"/><rect class="cls-1" x="183.84" width="103.71" height="7.08"/><polygon class="cls-1" points="295.25 60.65 289.2 61.51 285.91 0.97 291.96 0.1 295.25 60.65"/><polygon class="cls-1" points="286.15 60.72 280.1 61.51 277.99 14.35 284.04 13.56 286.15 60.72"/><polygon class="cls-1" points="178.22 60.65 184.26 61.51 187.56 0.97 181.51 0.1 178.22 60.65"/><polygon class="cls-1" points="188.83 60.72 194.88 61.51 197.03 13.94 190.98 13.15 188.83 60.72"/></svg>