<svg id="Layer_1" data-name="Layer 1" xmlns="http://www.w3.org/2000/svg" viewBox="0 0 387.24 403.3"><defs><style>.cls-1{fill:#ee242a;}</style></defs><title>Occupied</title><path class="cls-1" d="M386.52,389.16c-1.8.1-3.6.28-5.4.28q-181.76,0-363.52,0c-1.8,0-3.6-.18-5.4-.28-.36-.82-.84-.87-1.42-.21-2.74-.77-3.07-2.9-3.42-5.35-2-14.63-1.89-29.3-1.16-44,.19-.13.57-.31.55-.38a7.19,7.19,0,0,0-.49-1.07,260.64,260.64,0,0,1,19.86-86.33c2-4.77,5.12-5.55,9.19-3.29a86.79,86.79,0,0,0,35,11c5.07.44,8.22,3.27,10.56,8.19a294.83,294.83,0,0,1,24.46,76.94c10.26,5.23,20.77,3.13,31.27,1,5.76,3.08,10.82-1.55,16.34-1.54,2.79,0,5.58-1.14,8.39-1.32,10.59-.67,14.46,5.91,9.6,17.14,6.31,1.45,12.51,2.91,18.73,4.3,5.35,1.2,8.42,4.47,9.62,9.82.55,2.44-1.73,7.05,2.22,6.87,3.66-.17,8.39.26,11.31-3,1.85-2.06,4.41-3.6,3.71-7.74-1.91-11.22,9-25.56,20.3-26.57,6.6-.59,7.37-6.51,11.11-9.62,3.39-2.82,5.28-10.57,11.11-5.83s-1.35,8.31-3.41,12.19a38.21,38.21,0,0,1-3.41,4.55c3.63,1.7,6.64,2.36,9.85.74,10,3.29,20.1,1.63,30.19.88.41,0,.72-1.28,1.08-2a286.91,286.91,0,0,1,25.23-78.37c2-4,4.13-6.72,9.12-6.78,12.21-.14,23.33-4.43,33.93-10.08,6.24-3.33,9.47-1.76,12.09,4.84,14,35.26,20.78,71.76,18.9,109.65-.31,6.24-1.12,12.53-1.35,18.84-.09,2.5,0,5.32-3.35,6.19C387.35,388.28,386.88,388.36,386.52,389.16Zm-309-52.63,1.14,1.61c1.9,1.72,3.62,3.72,5.76,5.08,2.94,1.87,6.78,2.55,9.49.63,2.13-1.51.08-4.72-.36-7.16-3.73-20.95-11-40.72-19.42-60.18-2.19-5.08-5.09-7.75-10.67-8.07a54.13,54.13,0,0,1-22.22-6.1c-6.65-3.52-8.27-1-10.48,5-8.71,23.41-12.47,47.79-15.4,72.38-2.46,3.58-2.34,7.19-.11,10.82v7.84c-2.14,2.57-2.18,5.14,0,7.69l.15,4.68c-1.19.59-1,1.08.1,1.52,2,2.24-.14,6.07,3,7.9a54.22,54.22,0,0,0,27.9,0c1.09-3.44-2.33-4.06-3.81-5.74C36.06,367,31.37,358.56,31,348.79c-.59-14.94-.06-29.92,0-44.88.21-.1.59-.22.59-.31a6,6,0,0,0-.26-1.12c5.56-3.8,8.43-2.78,9,3.28.15,1.53,0,3.08,0,4.63,0,10.29,0,20.57,0,30.86.07,19.61,8.94,30.64,30.94,38.56,13.93,3.06,27.88,2.59,41.84.29,3.42-4.81.69-10.29,1.66-15.35,1.47-7.66-1.31-11.27-9.28-10.34,2.1-2.11,5.53.45,8.18-2.64-10,1.55-19.45-1.89-28.57,1.95-11-2.32-16.24-10-18.8-20.18,2.56-1.89,1.73-4.66,1.75-7.13.08-11.07,0-22.15.05-33.22,2.17,0,4.7-1.65,6.29,1.28l.46,1.62L75,327.34c-1,1.7-1,3.24.63,4.57l.37,1.51c-2.19,2.31-.3,2.68,1.47,3.12Zm52.67,42c2.5-7.78,2.92-15.55-.16-23.3-3.7-1.22-5.77-.69-5.6,4,.23,6.39-.14,12.79-.26,19.19-1.19.56-1,1.1,0,1.61C127.14,383.41,128.16,379.08,130.15,378.54ZM268.54,355.2c-2.72,8.25-2.47,16.51-.15,24.79,4.49,2.31,5.77-.24,5.86-4.07.12-5.62-.2-11.26.08-16.87C274.57,354.1,272,354.18,268.54,355.2ZM169,378.73c5.88-.33,11.86,2,17.66-.72,1.15-.55,2.53-.75,2.36-2.43-.13-1.29-1.26-1.48-2.24-1.71-4.26-1-8.51-2-12.79-2.83-14.93-3-15.64-3.91-12.8-17.58h.87c-.11-.09-.28-.27-.33-.25a2.58,2.58,0,0,0-.46.41c-6.25-.42-12.09,1.62-18,3-1.43.34-3.56.52-3.44,2.38.44,6.7-2.07,13.62,1.36,20.11,6,4.49,12.3,3,18.6.74l3-.08C165.33,382.18,167.64,383,169,378.73Zm214.37-11.14c2.44-3.58,2.32-7.19.09-10.81V345.83c2.06-2.09,2.1-4.15-.11-6.16-.54-4.09-1.14-8.17-1.61-12.27-2.47-21.61-7.08-42.69-15-63-1-2.59-1.28-5.66-5.63-3.51A86.22,86.22,0,0,1,332.21,269c-3.2.36-4.88,1.85-6.22,4.73a284.32,284.32,0,0,0-21.63,66c-.72,3.7.12,5.1,4.14,5,7.66-.26,14.22-6.8,14.65-16.14.46-10.06.16-20.16.26-30.24,0-3.64.92-7.05,5.46-6.81,4,.22,4.7,3.3,4.67,6.73-.07,10.08.25,20.17-.13,30.24-.52,13.73-10,24.13-22.93,25.88.63-1.52.29-2.33-1.53-2.32-7.82,0-15.64,0-24.73,0l4.31,2.37c-1.38.9-4.44-.32-4.33,2,.36,7.89-2.24,16,1.36,23.68,11.75,3.22,23.74.68,35.6,1.42,2.16.13,4.7.78,6.24-1.73,23.46-6.93,32.63-22.57,31.07-44.74-.67-9.47-.1-19-.14-28.53,0-2.41.18-4.73,2.6-6,2.67-1.35,5-.91,6.46,1.91-.14.18-.45.44-.41.51a6.79,6.79,0,0,0,.73.92c.13,11.09,0,22.2.46,33.27.72,15.8-3.37,29.54-15.44,40.36-.65.59-1.65,1.47-.42,2.54a54.29,54.29,0,0,0,27.9,0c2.89-1.34.9-4.79,2.82-6.55l.77.59-.73-.73Zm-124.11,1.17c-1.26-4,2.11-9.41-1.95-11.5-3.78-1.94-9-3.43-13.43-1.54-2.22.94-4.48,2.57-6.34,1.2-3.79-2.8-5.21-.26-7.1,2.18-6.27,8.08-6.22,8.64,1.82,14.49,1.88,1.37,4.14,2.43,5.57,4.17,5.77,7.06,12.93,3.2,19,1.7C261.87,378.2,257.66,372.23,259.31,368.76Z" transform="translate(-5.7 -6.58)"/><path class="cls-1" d="M126.83,129.86a68.83,68.83,0,0,0,1.6-6.76c.87-6.28.08-11.27-5.47-16.27-25.05-22.58-24.24-57.63,2.2-79,29.28-23.68,62.4-26.31,97.11-14a68.07,68.07,0,0,0,17.89,4.11c17,1.27,32.18,7.28,45,18.57,21.67,19,23.32,48.5,2.57,68.06-7.75,7.3-7,13.87-4.31,21.94.74,2.18,2.1,4.14,3,6.29,2.19,5.48-.18,8.65-6.12,7.8a49.13,49.13,0,0,1-25.76-11.65c-3.76-3.29-7.29-3.83-11.93-3.11a58.2,58.2,0,0,1-15.44.7c-8.09-.94-15.8.13-23.68,1.72a85.35,85.35,0,0,1-32.4.52c-4.94-.91-8.56-.08-12.5,3.42a53.05,53.05,0,0,1-29.92,13.27c-4.49-2.45-4.9-5.58-2.1-9.78C127.59,134.1,130,131.9,126.83,129.86Zm9.21,3.62c8-2.76,14.25-6.09,18.9-11.3,4.29-4.8,8.63-4.67,14.47-3.8,25.48,3.78,49.53.2,70-16.82,21.89-18.16,22.25-46.28,1.16-65.39-28.66-26-82.43-25.73-110.72.46-19.73,18.26-20.72,45.08-.29,62.4,10.18,8.63,9.42,17.7,8.06,28.2A59.46,59.46,0,0,1,136,133.48ZM250.45,30.93c25.06,29.73,19.59,61-12.64,85,1.53,0,2.86.34,3.93-.05,7.68-2.81,13.71-1,19.13,5.28,2.88,3.34,7.17,5.48,12.21,6.77-.24-1.6-.36-2.59-.54-3.57-1.86-9.82-2.55-18.37,7.16-26,12.63-9.95,15.66-25.8,10.16-39.15C283.85,44.59,264.61,30.77,250.45,30.93Z" transform="translate(-5.7 -6.58)"/><path class="cls-1" d="M159.54,196.64a34.34,34.34,0,0,1,2.29-14.45c5.76-13.67,14.78-25.72,23.4-37.31,12.12-16.3,38.1-9.8,44.67,9.68a31,31,0,0,0,7,11.5c11.71,12.76,15.24,27.68,10.14,44.42-1.8,5.89-3.6,11.79-5.52,17.64-6.12,18.69-20,30.08-36.84,30.24s-31.14-10.7-37.07-29.69C164.3,218.2,158.93,208.13,159.54,196.64Zm44.86,51.54c15.82,0,30-16.38,29.83-34.33-.21-17.32-12.75-30.21-29.61-30.42-17.07-.21-30.11,13-30.21,30.55C174.32,232,188.51,248.19,204.41,248.18Zm-35-56.45c18-20.7,44-26.26,67.77-3.16-.74-13.25-13.43-24.47-30.26-26.78C191.19,159.66,176.25,171.08,169.37,191.73Zm20.94-37.68c10-2.46,19-3,29.12,1C209.49,143.24,199.71,143,190.31,154.05Z" transform="translate(-5.7 -6.58)"/><path class="cls-1" d="M360.45,216.91c-10.38.22-10.38.22-11.24-6.15,2-1.21,6.49,2.6,6.16-3.13,4.34-1.86,8.33-4,9.81-9.08.75-2.58.54-4.81-1.57-6.17-2.34-1.51-4.48-.11-6.08,1.77a20.33,20.33,0,0,0-2.48,3.87c-1.34,2.61-2.81,5.36-6.24,4.57-3.14-.72-4.22-3.5-4.5-6.54-.61-6.48-3.58-8.48-10.36-7.25a39.47,39.47,0,0,1-21.38-1.61c-4-1.58-4.82-.15-5.22,3.43-1.49,13.42-1.79,26.72,1.33,40,1.19,5.09,3.85,6.65,8.54,7a23.42,23.42,0,0,0,19.52-7.51c2.43-2.54,4.94-5.24,8.4-1.95,3.69,3.52,1.28,6.65-1.56,9.17a46.78,46.78,0,0,1-8.66,6.41c-3.57,1.91-6.74,3.41-5.88,8.45.46,2.73-1.95,4.32-4.26,4.67-2.52.38-5-1.35-5.06-3.75-.08-4.47-2.28-5.24-6.11-5.74-8-1-12.39-5.74-14.41-13.86-3.62-14.57-3.56-29.11-1.62-43.77.75-5.7.71-10.58-2.67-16-7.4-11.85-6.06-16.46,5.53-24.25,10-6.7,20.55-11.72,33.14-9.23,3.92,2.85,7.74,4.43,11-.88,28.81,3.37,44.33,30.46,31.67,56.76-6.12,12.71-5.95,25.69-5.83,39,0,3.25-.53,6.46-4.59,6.85-3.33.32-5.48-1.14-5.13-4.93C364.38,232.23,364.26,221.39,360.45,216.91Zm-25.38-37a3.34,3.34,0,0,0,.19-.93,8.06,8.06,0,0,1,8.85.46c4.9,3.89,10,5.37,16,3.63,2.13,4.11,4.21,4.09,6.22-.09,2.74.45,4.43.44,4.65-3.46.7-12.48-7.76-25.11-20.94-29-14.52-4.32-28.48-2.06-41.5,5.56-9,5.3-8.81,13.66.4,19.05,2,1.16,4.12,2,6.18,3-.14,3.53,3,2.35,4.65,3.2.48.84,1,.86,1.48,0,1.28-.09,2.5-.32,3.14-1.64l6.21,0C332,181.67,333.47,181.83,335.07,179.92Z" transform="translate(-5.7 -6.58)"/><path class="cls-1" d="M80.55,148.71l3.11.39c.44,2.11,1.14,3.46,3.13,1.08l2.4-.2,1.95-.19c15.73-3.9,20.5.59,17.4,16.69-.57,3-1.57,6.48-3.61,8.42-5.4,5.12-4,10.83-3.36,17,1.38,13.9,1.55,27.74-2,41.56C97.41,242,92.7,246.55,84.4,247.56c-3.24.4-5.19.95-5.21,4.86a4.47,4.47,0,0,1-5.27,4.45c-2.69-.36-4.81-2.37-4.29-5.48.73-4.4-2.05-5.67-5.26-7.16a32.4,32.4,0,0,1-9.87-7.41c-2.51-2.68-4.25-5.58-.91-8.7,3.08-2.88,5.61-1,7.9,1.47a23.56,23.56,0,0,0,20.88,8c4.1-.43,6.39-1.91,7.47-6.27,3.37-13.57,3.11-27.17,1.42-40.86-.3-2.46-.51-4.29-4.18-3.28A57.85,57.85,0,0,1,61,188.35c-4.64-.85-5.6,2.82-6.29,6.11s-.84,7.2-4.77,8.1c-4.32,1-5.25-3-6.94-5.86s-4.09-6.51-7.83-4.22c-4.07,2.49-1.85,6.32,0,9.48a10.68,10.68,0,0,0,8.18,5.35c4,.28,7,1,6.46,5.45s-4.26,4.43-7.76,4.21c-1.28-.08-2.57-.06-3.85-.08-3.14.76-2.72,3.28-2.73,5.57q0,8.12,0,16.24c-2.09,2.77-4.2-.67-6.29,0-2-3.62-1.17-7.61-.82-11.28,1.15-11.93-2.26-22.59-7.21-33.22-10.13-21.74,2.63-47.7,25.16-52,11.33,1.85,22.74,3.26,33.69,7C80.13,149.28,80.37,148.9,80.55,148.71Zm-6.19,31c3.64,2.62,6.82,2.51,9.3-1.6,6.93-3.34,14.57-6,15.45-15.37.27-2.93.17-5-4-4.06-9.5,2.07-18.23-.81-26.94-4.52-26.37-11.24-44.17,10-39.76,29.07,9.69-1.89,20.53,3.22,29.29-4.84,1-.95,3.5-.72,5.07.62,1.58,2,3.25,3.33,5.41.67Z" transform="translate(-5.7 -6.58)"/><path class="cls-1" d="M137.9,312.86c-.15-25,17.41-49.83,38.58-55.47,6-1.59,10.68-2,10.53,6.84-.09,5.57,13.27,17.78,18,17.78,4.5,0,16.55-12.29,16.58-18,0-7.62,4.68-7.7,9.74-6.64a38,38,0,0,1,20.14,11c12.13,12.83,19.67,27.75,18.88,45.94-.16,3.68.39,8.76-5.55,8.16-5.08-.52-4.07-5-4.18-8.54-.54-18.44-7.64-33.41-23.39-43.75-3.59-2.35-5.77-2.68-8,2.37-4,9.16-12.19,14.46-20.64,19.2a6.44,6.44,0,0,1-6.58.13c-9.38-4.72-18.37-10.17-22.94-20-2.35-5.06-4.6-3.4-7.64-1.77-14.83,7.95-26.07,31.16-23.42,48.25.51,3.31.76,6.67,1.12,10,.34,3.15-.35,6.08-3.91,6.39-3.76.33-5.55-2.34-5.75-5.87C139.24,323.2,137.26,317.69,137.9,312.86Z" transform="translate(-5.7 -6.58)"/><path class="cls-1" d="M69.52,409.14c-3.85.47-5.16-2-5.14-5.09s2.39-4.49,5.12-4.9a41.61,41.61,0,0,1,6.19-.15H315.47c2.07,0,4.15-.13,6.2.06,3.37.32,6.25,1.58,6,5.61-.26,3.88-2.65,5.35-6.44,4.55l.36-2.37c1.44-.35,3.48,0,3.84-1.89s-1.2-2.86-2.79-3.1a40.36,40.36,0,0,0-6.17-.28H76.08c-1.55,0-3.11,0-4.65.06-4.1.28-2.68,2.73-1.89,4.92Z" transform="translate(-5.7 -6.58)"/><path class="cls-1" d="M321.57,406.85l-.36,2.37q-98.37.11-196.73.2c-18.32,0-36.65-.2-55-.3q0-1.29,0-2.59,123.71,0,247.42-.08C318.49,406.47,320,406.72,321.57,406.85Z" transform="translate(-5.7 -6.58)"/><path class="cls-1" d="M237.49,304c.62-2.92,2.83-3.6,5.21-3a5,5,0,0,1,4,5.06q.16,9.61,0,19.23a5,5,0,0,1-4,5c-2.39.53-4.61-.07-5.19-3A38.51,38.51,0,0,0,237.49,304Z" transform="translate(-5.7 -6.58)"/><path class="cls-1" d="M169.08,333.4l-3.1,0a59.75,59.75,0,0,1-.13-31c3,2.29,3.3,5.5,3.27,8.91C169.06,318.62,169.09,326,169.08,333.4Z" transform="translate(-5.7 -6.58)"/><path class="cls-1" d="M169.08,333.4c0-7.39,0-14.77,0-22.16,0-3.41-.32-6.62-3.27-8.91A11.73,11.73,0,0,0,166,301c3.5-.67,5.78,1.16,5.87,4.3.26,8.66,0,17.33-.15,26A2.23,2.23,0,0,1,169.08,333.4Z" transform="translate(-5.7 -6.58)"/><path class="cls-1" d="M343.16,404.29c-.07,3.54-2,5.44-5.24,5.59a5.05,5.05,0,0,1-5.68-5.09c-.17-3.58,1.92-6,5.65-5.88C341.16,399,343,401,343.16,404.29Z" transform="translate(-5.7 -6.58)"/><path class="cls-1" d="M80.55,148.71c-.17.19-.41.57-.51.54-10.95-3.69-22.36-5.1-33.69-7C58.89,138.34,69.74,143.41,80.55,148.71Z" transform="translate(-5.7 -6.58)"/><path class="cls-1" d="M166,301a11.73,11.73,0,0,1-.16,1.33,59.73,59.73,0,0,0,.13,31c-2.8.85-4-1-4.06-3.12q-.32-12.26-.08-24.52A4.51,4.51,0,0,1,166,301Z" transform="translate(-5.7 -6.58)"/><path class="cls-1" d="M293.37,344.65c-.36.68-.67,1.93-1.08,2-10.09.74-20.22,2.41-30.19-.88h0l1.68-.64Z" transform="translate(-5.7 -6.58)"/><path class="cls-1" d="M136.63,345.72c-10.51,2.09-21,4.19-31.27-1l29.6.41,1.68.64Z" transform="translate(-5.7 -6.58)"/><path class="cls-1" d="M35.5,238.73q0-8.12,0-16.24c0-2.3-.41-4.81,2.73-5.57-.3,7.29,1,14.62-.68,21.86Z" transform="translate(-5.7 -6.58)"/><path class="cls-1" d="M360.45,216.91c3.81,4.48,3.93,15.32.23,20.19Z" transform="translate(-5.7 -6.58)"/><path class="cls-1" d="M126.83,129.86c3.13,2,.76,4.24-.26,5.78-2.8,4.2-2.39,7.33,2.1,9.78-6.41.88-7.91-2.12-5.77-7.6C124,135.08,125.5,132.51,126.83,129.86Z" transform="translate(-5.7 -6.58)"/><path class="cls-1" d="M237.49,304a38.51,38.51,0,0,1,0,23.23A123.06,123.06,0,0,1,237.49,304Z" transform="translate(-5.7 -6.58)"/><path class="cls-1" d="M344.56,139.43c-3.27,5.3-7.1,3.72-11,.88C337,137.19,340.86,139.37,344.56,139.43Z" transform="translate(-5.7 -6.58)"/><path class="cls-1" d="M355.37,207.63c.33,5.73-4.19,1.92-6.16,3.13C350.05,207.34,352.45,207,355.37,207.63Z" transform="translate(-5.7 -6.58)"/><path class="cls-1" d="M35.5,238.73l2.08,0c-2.8,5-5.59,4.71-8.37,0C31.3,238.05,33.42,241.49,35.5,238.73Z" transform="translate(-5.7 -6.58)"/><path class="cls-1" d="M86.79,150.18c-2,2.38-2.69,1-3.13-1.08C84.86,149,86.09,148.82,86.79,150.18Z" transform="translate(-5.7 -6.58)"/><path class="cls-1" d="M91.14,149.79l-1.95.19Z" transform="translate(-5.7 -6.58)"/><path class="cls-1" d="M386.52,389.16c.36-.8.83-.88,1.41-.21l-.67.36Z" transform="translate(-5.7 -6.58)"/><path class="cls-1" d="M10.77,389c.58-.66,1.06-.61,1.42.21l-.75.15Z" transform="translate(-5.7 -6.58)"/><path class="cls-1" d="M263.78,345.09l-1.68.64C262.43,344.93,262.88,344.44,263.78,345.09Z" transform="translate(-5.7 -6.58)"/><path class="cls-1" d="M136.63,345.73l-1.68-.64C135.84,344.44,136.29,344.93,136.63,345.73Z" transform="translate(-5.7 -6.58)"/><path class="cls-1" d="M6.25,338.16a7.19,7.19,0,0,1,.49,1.07c0,.07-.36.25-.55.38A1.47,1.47,0,0,1,6.25,338.16Z" transform="translate(-5.7 -6.58)"/><path class="cls-1" d="M66.34,333.54c-2.56-12.47-.71-25.07-1.08-37.6a2.44,2.44,0,0,1,2.88-2.75c0,11.07,0,22.15-.05,33.22C68.08,328.88,68.9,331.65,66.34,333.54Z" transform="translate(-5.7 -6.58)"/><path class="cls-1" d="M310.48,354.36l-21.94.07L284.23,352c9.09,0,16.91,0,24.73,0C310.78,352,311.11,352.83,310.48,354.36Z" transform="translate(-5.7 -6.58)"/><path class="cls-1" d="M105.53,354.41H89.77c-1.39-1.25-3-.95-4.64-.7h0c9.12-3.84,18.61-.4,28.57-1.95C111.05,354.86,107.63,352.3,105.53,354.41Z" transform="translate(-5.7 -6.58)"/><path class="cls-1" d="M71.31,379.81l41.84.29C99.18,382.4,85.23,382.87,71.31,379.81Z" transform="translate(-5.7 -6.58)"/><path class="cls-1" d="M285.57,380.11l41.84-.3c-1.54,2.51-4.08,1.86-6.24,1.73C309.32,380.79,297.33,383.33,285.57,380.11Z" transform="translate(-5.7 -6.58)"/><path class="cls-1" d="M352.34,380.08l27.9,0A54.29,54.29,0,0,1,352.34,380.08Z" transform="translate(-5.7 -6.58)"/><path class="cls-1" d="M18.48,380.12l27.9,0A54.22,54.22,0,0,1,18.48,380.12Z" transform="translate(-5.7 -6.58)"/><path class="cls-1" d="M268.54,355.2,268.38,380C266.07,371.71,265.82,363.45,268.54,355.2Z" transform="translate(-5.7 -6.58)"/><path class="cls-1" d="M130.15,378.54l-.16-23.3C133.06,363,132.64,370.75,130.15,378.54Z" transform="translate(-5.7 -6.58)"/><path class="cls-1" d="M141.2,379.17l18.6.74C153.5,382.19,147.23,383.66,141.2,379.17Z" transform="translate(-5.7 -6.58)"/><path class="cls-1" d="M162.76,379.83c1.72-2.49,4.15-.94,6.28-1.1C167.64,383,165.33,382.18,162.76,379.83Z" transform="translate(-5.7 -6.58)"/><path class="cls-1" d="M383.42,367.59l.09-10.81C385.74,360.4,385.86,364,383.42,367.59Z" transform="translate(-5.7 -6.58)"/><path class="cls-1" d="M15.32,339.67l-.11,10.82C13,346.86,12.86,343.25,15.32,339.67Z" transform="translate(-5.7 -6.58)"/><path class="cls-1" d="M15.21,358.33l0,7.69C13,363.47,13.07,360.9,15.21,358.33Z" transform="translate(-5.7 -6.58)"/><path class="cls-1" d="M383.5,345.83l-.11-6.16C385.6,341.68,385.56,343.74,383.5,345.83Z" transform="translate(-5.7 -6.58)"/><path class="cls-1" d="M76,333.42l1.47,3.12C75.71,336.1,73.82,335.72,76,333.42Z" transform="translate(-5.7 -6.58)"/><path class="cls-1" d="M75,327.34l.63,4.57C74,330.57,74,329,75,327.34Z" transform="translate(-5.7 -6.58)"/><path class="cls-1" d="M161.31,353.64a2.58,2.58,0,0,1,.46-.41s.21.16.33.25l-.87,0Z" transform="translate(-5.7 -6.58)"/><path class="cls-1" d="M74.44,294.46a7.86,7.86,0,0,1,.77,1.05c.06.1-.2.37-.31.57Z" transform="translate(-5.7 -6.58)"/><path class="cls-1" d="M31,303.91l.32-1.43a6,6,0,0,1,.26,1.12C31.57,303.69,31.18,303.81,31,303.91Z" transform="translate(-5.7 -6.58)"/><path class="cls-1" d="M367.41,302.48l.33,1.43A6.79,6.79,0,0,1,367,303C367,302.93,367.27,302.66,367.41,302.48Z" transform="translate(-5.7 -6.58)"/><path class="cls-1" d="M124.12,378.45l0,1.61C123.11,379.55,122.94,379,124.12,378.45Z" transform="translate(-5.7 -6.58)"/><path class="cls-1" d="M383.1,373.42l.73.73-.77-.59Z" transform="translate(-5.7 -6.58)"/><path class="cls-1" d="M15.39,370.7l.1,1.52C14.42,371.78,14.21,371.29,15.39,370.7Z" transform="translate(-5.7 -6.58)"/><path class="cls-1" d="M77.47,336.53l1.14,1.61Z" transform="translate(-5.7 -6.58)"/><path class="cls-1" d="M315.09,178.14l9.27,1.58c-.65,1.32-1.86,1.54-3.14,1.64a11.93,11.93,0,0,0-1.48,0C318,180.48,314.95,181.67,315.09,178.14Z" transform="translate(-5.7 -6.58)"/><path class="cls-1" d="M360.08,183.07l6.22-.09C364.29,187.17,362.21,187.18,360.08,183.07Z" transform="translate(-5.7 -6.58)"/><path class="cls-1" d="M330.58,179.7l2.76-.15,1.73.37C333.47,181.83,332,181.67,330.58,179.7Z" transform="translate(-5.7 -6.58)"/><path class="cls-1" d="M335.07,179.92l-1.73-.37,1.91-.55A3.34,3.34,0,0,1,335.07,179.92Z" transform="translate(-5.7 -6.58)"/><path class="cls-1" d="M319.74,181.34a11.93,11.93,0,0,1,1.48,0C320.72,182.19,320.23,182.17,319.74,181.34Z" transform="translate(-5.7 -6.58)"/><path class="cls-1" d="M74.36,179.71l9.3-1.6C81.17,182.22,78,182.33,74.36,179.71Z" transform="translate(-5.7 -6.58)"/><path class="cls-1" d="M65.4,179.55l2.75.13C66,182.34,64.32,181,62.74,179l.33,0Z" transform="translate(-5.7 -6.58)"/><path class="cls-1" d="M321.57,406.85c-1.54-.13-3.08-.38-4.62-.38q-123.71,0-247.42.08c-.79-2.19-2.21-4.65,1.89-4.92,1.54-.1,3.1-.06,4.65-.06H316.45a40.36,40.36,0,0,1,6.17.28c1.58.25,3.14,1.3,2.79,3.1S323,406.51,321.57,406.85Z" transform="translate(-5.7 -6.58)"/><path class="cls-1" d="M85.13,353.71c1.62-.25,3.25-.55,4.64.7C88.1,355,86.51,355.08,85.13,353.71Z" transform="translate(-5.7 -6.58)"/><path class="cls-1" d="M185.37,63.12c5.27.15,8.06,2.71,8.37,7s-2.3,7.27-6.86,7.58c-5,.33-8.07-2.46-8.11-7.16A7.16,7.16,0,0,1,185.37,63.12Z" transform="translate(-5.7 -6.58)"/><path class="cls-1" d="M156.83,63.14c4.66.18,7.42,2.42,7.67,7.06s-2.42,7.33-7,7.49-7.54-2.27-7.63-6.92C149.81,66.32,152.28,63.59,156.83,63.14Z" transform="translate(-5.7 -6.58)"/><path class="cls-1" d="M211,76.73c-4.89-2.86-5-6.89-2-10.9,2.73-3.61,6.79-3.89,10.12-1,3.82,3.33,4.39,7.32.06,11C216.35,75.11,213.22,71.58,211,76.73Z" transform="translate(-5.7 -6.58)"/><path class="cls-1" d="M211,76.73c2.21-5.15,5.35-1.62,8.18-.87C216.7,78.39,213.92,78.18,211,76.73Z" transform="translate(-5.7 -6.58)"/><path class="cls-1" d="M65.4,179.55,63.07,179Z" transform="translate(-5.7 -6.58)"/></svg>